# xmcd
#
# Track frame offsets:
#	150
#	16275
#	47852
#	75429
#	76525
#	96233
#	116343
#	135383
#	145636
#	168479
#	187706
#	188901
#	206082
#	208741
#	229167
#	256355
#	294998
#	296604
#	317844
#
# Disc length: 4527 seconds
# Revision: 0
# Processed by: cddbd v1.5.2PL0 Copyright (c) Steve Scherf et al.
# Submitted via: dBpowerAMP V12.0
#
DISCID=0111ad13
DTITLE=The Mystix - Rhythm and Roots
DYEAR=2016
DGENRE=Country
TTITLE0=Long John
TTITLE1=The Best Lover That I Ever Had
TTITLE2=To Ramona
TTITLE3=Intro
TTITLE4=Midnight In Mississippi
TTITLE5=Blue Morning
TTITLE6=A Lifetime Worth Of Blues
TTITLE7=Intro
TTITLE8=Jelly Roll
TTITLE9=Things Ain't What They Used To Be
TTITLE10=Intro
TTITLE11=Hard Times
TTITLE12=Intro
TTITLE13=Boppin' The Blues
TTITLE14=Goodbye Baby, Baby Goodbye
TTITLE15=Whiskey And Wimmen
TTITLE16=Encore
TTITLE17=Hi-line
TTITLE18=Cry, Cry, Cry
EXTD=
EXTT0=
EXTT1=
EXTT2=
EXTT3=
EXTT4=
EXTT5=
EXTT6=
EXTT7=
EXTT8=
EXTT9=
EXTT10=
EXTT11=
EXTT12=
EXTT13=
EXTT14=
EXTT15=
EXTT16=
EXTT17=
EXTT18=
PLAYORDER=
